# xmcd CD database file
# Copyright (C) 1993-1998 Ti Kan
#
# Track frame offsets:
# 150
# 13115
# 29225
# 48650
# 61765
# 74775
# 97765
# 109867
# 123375
# 137740
# 153162
# 167780
#
# Disc length: 2425 seconds
# Revision: 0
# Processed by: cddbd v1.4b41PL1 Copyright (c) Steve Scherf et al.
# Submitted via: CDSpectrumPro v3.3.333
#
DISCID=a809770c
DTITLE=Kenny Rogers - Kenny Rogers Collection
DYEAR=1900
DGENRE=
TTITLE0=Ruby Don't Take Your Love To Tow
TTITLE1=Green, Green Grass Of Home
TTITLE2=Sweet Music Man
TTITLE3=Love Or Something Like It
TTITLE4=You And Me
TTITLE5=King Of Oak Street
TTITLE6=Reuben James
TTITLE7=Puttin' In Overtime At Home
TTITLE8=Daytime Friends
TTITLE9=Let it be me
TTITLE10=Buried treasures
TTITLE11=The son of Hickory Holler's tramp
EXTD=
EXTT0=
EXTT1=
EXTT2=
EXTT3=
EXTT4=
EXTT5=
EXTT6=
EXTT7=
EXTT8=
EXTT9=
EXTT10=
EXTT11=
PLAYORDER=
